<svg xmlns="http://www.w3.org/2000/svg" xmlns:xlink="http://www.w3.org/1999/xlink" width="500" zoomAndPan="magnify" viewBox="0 0 375 374.999991" height="500" preserveAspectRatio="xMidYMid meet" version="1.0"><path fill="#668fa3" d="M 224.527344 43.445312 C 231.394531 45.199219 238.089844 47.4375 244.570312 50.128906 C 251.101562 52.828125 257.421875 56.007812 263.484375 59.605469 L 289.308594 43.859375 C 292.648438 41.828125 296.386719 40.488281 300.035156 40.488281 C 303.539062 40.488281 306.882812 41.65625 309.683594 44.449219 L 330.824219 65.597656 C 330.90625 65.679688 330.988281 65.773438 331.070312 65.851562 C 333.691406 68.605469 334.785156 71.847656 334.785156 75.238281 C 334.785156 78.886719 333.457031 82.625 331.414062 85.964844 L 315.679688 111.789062 C 319.273438 117.855469 322.453125 124.164062 325.15625 130.695312 C 327.847656 137.183594 330.082031 143.878906 331.839844 150.757812 L 361.1875 157.867188 C 364.996094 158.792969 368.59375 160.488281 371.164062 163.070312 C 373.644531 165.546875 375.1875 168.726562 375.1875 172.6875 L 375.1875 202.585938 C 375.1875 206.546875 373.644531 209.738281 371.164062 212.207031 C 368.59375 214.785156 364.996094 216.480469 361.1875 217.40625 L 331.832031 224.527344 C 330.082031 231.394531 327.839844 238.089844 325.15625 244.570312 C 322.445312 251.101562 319.273438 257.421875 315.667969 263.484375 L 331.414062 289.308594 C 333.457031 292.648438 334.785156 296.386719 334.785156 300.035156 C 334.785156 303.53125 333.628906 306.863281 330.824219 309.664062 L 330.816406 309.675781 L 330.824219 309.683594 L 309.683594 330.824219 C 306.882812 333.617188 303.539062 334.785156 300.035156 334.785156 C 296.386719 334.785156 292.648438 333.457031 289.308594 331.414062 L 263.496094 315.667969 C 257.429688 319.273438 251.113281 322.453125 244.582031 325.15625 C 238.097656 327.847656 231.394531 330.082031 224.527344 331.839844 L 217.40625 361.1875 C 216.492188 364.996094 214.785156 368.59375 212.214844 371.164062 C 209.738281 373.644531 206.546875 375.1875 202.585938 375.1875 L 172.6875 375.1875 C 168.726562 375.1875 165.546875 373.644531 163.070312 371.164062 C 160.488281 368.59375 158.792969 364.996094 157.867188 361.1875 L 150.757812 331.832031 C 143.878906 330.082031 137.183594 327.839844 130.703125 325.15625 C 124.183594 322.445312 117.863281 319.273438 111.800781 315.667969 L 85.976562 331.414062 C 82.632812 333.457031 78.886719 334.785156 75.238281 334.785156 C 71.746094 334.785156 68.390625 333.617188 65.597656 330.824219 L 44.460938 309.683594 C 41.65625 306.882812 40.488281 303.539062 40.488281 300.035156 C 40.488281 296.386719 41.828125 292.648438 43.871094 289.308594 L 59.605469 263.496094 C 56 257.429688 52.828125 251.113281 50.128906 244.582031 C 47.4375 238.097656 45.191406 231.394531 43.445312 224.527344 L 14.085938 217.40625 C 10.277344 216.492188 6.691406 214.785156 4.109375 212.207031 C 1.640625 209.738281 0.0976562 206.546875 0.0976562 202.585938 L 0.0976562 172.6875 C 0.0976562 168.726562 1.640625 165.546875 4.109375 163.070312 C 6.691406 160.488281 10.277344 158.792969 14.085938 157.867188 L 43.445312 150.746094 C 45.199219 143.878906 47.4375 137.183594 50.128906 130.703125 C 52.828125 124.171875 56.007812 117.855469 59.605469 111.789062 L 43.871094 85.964844 C 41.828125 82.625 40.488281 78.886719 40.488281 75.238281 C 40.488281 71.734375 41.65625 68.390625 44.460938 65.597656 L 65.597656 44.449219 C 68.390625 41.65625 71.746094 40.488281 75.238281 40.488281 C 78.886719 40.488281 82.632812 41.828125 85.976562 43.859375 L 111.800781 59.605469 C 117.863281 56.007812 124.183594 52.828125 130.703125 50.128906 C 137.183594 47.4375 143.878906 45.199219 150.746094 43.445312 L 157.867188 14.085938 C 158.792969 10.277344 160.488281 6.691406 163.070312 4.109375 C 165.546875 1.632812 168.726562 0.0976562 172.6875 0.0976562 L 202.585938 0.0976562 C 206.546875 0.0976562 209.738281 1.632812 212.214844 4.109375 C 214.785156 6.691406 216.492188 10.277344 217.40625 14.085938 Z M 224.527344 43.445312 " fill-opacity="1" fill-rule="nonzero"/><path fill="#577989" d="M 187.640625 60.988281 C 222.609375 60.988281 254.269531 75.167969 277.199219 98.085938 C 300.117188 121.003906 314.289062 152.667969 314.289062 187.640625 C 314.289062 222.609375 300.117188 254.269531 277.199219 277.1875 C 254.269531 300.117188 222.609375 314.289062 187.640625 314.289062 C 152.667969 314.289062 121.003906 300.117188 98.085938 277.1875 C 75.167969 254.269531 60.988281 222.609375 60.988281 187.640625 C 60.988281 152.667969 75.167969 121.003906 98.085938 98.085938 C 121.003906 75.167969 152.667969 60.988281 187.640625 60.988281 Z M 187.640625 60.988281 " fill-opacity="1" fill-rule="nonzero"/><path fill="#ffffff" d="M 187.640625 78.734375 C 217.710938 78.734375 244.9375 90.925781 264.644531 110.632812 C 284.351562 130.339844 296.539062 157.5625 296.539062 187.640625 C 296.539062 217.710938 284.351562 244.9375 264.644531 264.644531 C 244.9375 284.351562 217.710938 296.539062 187.640625 296.539062 C 157.5625 296.539062 130.339844 284.351562 110.632812 264.644531 C 90.925781 244.9375 78.734375 217.710938 78.734375 187.640625 C 78.734375 157.5625 90.925781 130.339844 110.632812 110.632812 C 130.339844 90.925781 157.5625 78.734375 187.640625 78.734375 Z M 187.640625 78.734375 " fill-opacity="1" fill-rule="nonzero"/><path fill="#27a2db" d="M 146.550781 198.9375 C 146.550781 196.683594 148.378906 194.855469 150.625 194.855469 C 152.878906 194.855469 154.707031 196.683594 154.707031 198.9375 C 154.707031 203.875 152.6875 208.355469 149.445312 211.605469 C 146.195312 214.847656 141.714844 216.867188 136.777344 216.867188 L 128.792969 216.867188 C 121.664062 216.867188 115.191406 213.953125 110.5 209.257812 C 105.804688 204.566406 102.890625 198.085938 102.890625 190.953125 L 102.890625 184.332031 C 102.890625 177.199219 105.804688 170.726562 110.5 166.035156 C 115.191406 161.34375 121.664062 158.425781 128.792969 158.425781 L 136.777344 158.425781 C 141.714844 158.425781 146.195312 160.4375 149.445312 163.6875 C 152.6875 166.9375 154.707031 171.417969 154.707031 176.355469 C 154.707031 178.601562 152.878906 180.429688 150.625 180.429688 C 148.378906 180.429688 146.550781 178.601562 146.550781 176.355469 C 146.550781 173.664062 145.453125 171.226562 143.675781 169.449219 C 141.898438 167.679688 139.460938 166.574219 136.777344 166.574219 L 128.792969 166.574219 C 123.917969 166.574219 119.480469 168.574219 116.257812 171.796875 C 113.039062 175.015625 111.046875 179.453125 111.046875 184.332031 L 111.046875 190.953125 C 111.046875 195.839844 113.039062 200.269531 116.257812 203.488281 C 119.480469 206.710938 123.917969 208.710938 128.792969 208.710938 L 136.777344 208.710938 C 139.460938 208.710938 141.898438 207.613281 143.675781 205.835938 C 145.453125 204.070312 146.550781 201.621094 146.550781 198.9375 Z M 146.550781 198.9375 " fill-opacity="1" fill-rule="nonzero"/><path fill="#27a2db" d="M 177.789062 212.785156 C 177.789062 215.039062 175.960938 216.867188 173.714844 216.867188 C 171.460938 216.867188 169.632812 215.039062 169.632812 212.785156 L 169.632812 162.488281 C 169.632812 160.234375 171.460938 158.417969 173.714844 158.417969 C 175.453125 158.417969 176.933594 159.503906 177.515625 161.027344 L 196.898438 203.074219 L 216.390625 160.785156 C 217.324219 158.742188 219.742188 157.859375 221.785156 158.792969 C 223.269531 159.484375 224.152344 160.957031 224.152344 162.488281 L 224.160156 162.488281 L 224.160156 212.785156 C 224.160156 215.039062 222.332031 216.867188 220.078125 216.867188 C 217.832031 216.867188 216.003906 215.039062 216.003906 212.785156 L 216.003906 181.058594 L 200.605469 214.46875 L 200.59375 214.492188 C 200.199219 215.34375 199.515625 216.066406 198.601562 216.480469 C 196.5625 217.425781 194.144531 216.53125 193.199219 214.492188 L 177.789062 181.058594 Z M 177.789062 212.785156 " fill-opacity="1" fill-rule="nonzero"/><path fill="#27a2db" d="M 270.546875 167.488281 C 271.570312 169.480469 270.777344 171.925781 268.777344 172.953125 C 266.785156 173.96875 264.339844 173.175781 263.324219 171.1875 C 262.601562 169.792969 261.515625 168.617188 260.171875 167.804688 C 258.894531 167.019531 257.371094 166.5625 255.734375 166.5625 C 253.386719 166.5625 251.265625 167.519531 249.730469 169.050781 C 248.1875 170.597656 247.242188 172.71875 247.242188 175.066406 C 247.242188 177.414062 248.1875 179.535156 249.730469 181.070312 C 251.265625 182.613281 253.386719 183.558594 255.734375 183.558594 C 260.335938 183.558594 264.5 185.425781 267.507812 188.433594 C 270.523438 191.453125 272.382812 195.617188 272.382812 200.21875 C 272.382812 204.808594 270.523438 208.976562 267.507812 211.992188 C 264.5 215 260.335938 216.867188 255.734375 216.867188 C 252.339844 216.867188 249.160156 215.832031 246.511719 214.054688 C 243.789062 212.246094 241.632812 209.65625 240.363281 206.597656 C 239.5 204.527344 240.484375 202.136719 242.558594 201.285156 C 244.640625 200.421875 247.019531 201.40625 247.882812 203.480469 C 248.53125 205.042969 249.640625 206.375 251.03125 207.308594 C 252.363281 208.191406 253.976562 208.710938 255.734375 208.710938 C 258.082031 208.710938 260.203125 207.757812 261.746094 206.222656 C 263.28125 204.6875 264.238281 202.566406 264.238281 200.21875 C 264.238281 197.871094 263.28125 195.738281 261.746094 194.203125 C 260.203125 192.671875 258.082031 191.714844 255.734375 191.714844 C 251.140625 191.714844 246.976562 189.847656 243.960938 186.839844 C 240.953125 183.824219 239.085938 179.65625 239.085938 175.066406 C 239.085938 170.464844 240.953125 166.300781 243.960938 163.292969 C 246.976562 160.277344 251.140625 158.417969 255.734375 158.417969 C 258.902344 158.417969 261.871094 159.300781 264.410156 160.855469 C 267.011719 162.449219 269.144531 164.746094 270.546875 167.488281 Z M 270.546875 167.488281 " fill-opacity="1" fill-rule="nonzero"/><path fill="#edf3f4" d="M 139.226562 134.382812 C 136.972656 134.382812 135.144531 132.554688 135.144531 130.308594 C 135.144531 128.054688 136.972656 126.222656 139.226562 126.222656 L 236.058594 126.222656 C 238.300781 126.222656 240.128906 128.054688 240.128906 130.308594 C 240.128906 132.554688 238.300781 134.382812 236.058594 134.382812 Z M 139.226562 134.382812 " fill-opacity="1" fill-rule="evenodd"/><path fill="#edf3f4" d="M 139.226562 249.050781 C 136.972656 249.050781 135.144531 247.222656 135.144531 244.976562 C 135.144531 242.722656 136.972656 240.894531 139.226562 240.894531 L 236.058594 240.894531 C 238.300781 240.894531 240.128906 242.722656 240.128906 244.976562 C 240.128906 247.222656 238.300781 249.050781 236.058594 249.050781 Z M 139.226562 249.050781 " fill-opacity="1" fill-rule="evenodd"/></svg>