<svg xmlns="http://www.w3.org/2000/svg" xmlns:xlink="http://www.w3.org/1999/xlink" width="500" zoomAndPan="magnify" viewBox="0 0 375 374.999991" height="500" preserveAspectRatio="xMidYMid meet" version="1.0"><defs><clipPath id="e46bd8092e"><path d="M 78 2.816406 L 362.300781 2.816406 L 362.300781 374.816406 L 78 374.816406 Z M 78 2.816406 " clip-rule="nonzero"/></clipPath><clipPath id="f5c6768e6e"><path d="M 251 2.816406 L 362.300781 2.816406 L 362.300781 115 L 251 115 Z M 251 2.816406 " clip-rule="nonzero"/></clipPath><clipPath id="1996876545"><path d="M 15.050781 161 L 292 161 L 292 276 L 15.050781 276 Z M 15.050781 161 " clip-rule="nonzero"/></clipPath></defs><g clip-path="url(#e46bd8092e)"><path fill="#0263d1" d="M 125.21875 2.824219 L 251.144531 2.824219 L 362.34375 114.035156 L 362.34375 327.632812 C 362.34375 353.589844 341.109375 374.808594 315.179688 374.808594 L 125.21875 374.808594 C 99.289062 374.808594 78.054688 353.589844 78.054688 327.632812 L 78.054688 49.976562 C 78.054688 24.039062 99.289062 2.824219 125.21875 2.824219 Z M 125.21875 2.824219 " fill-opacity="1" fill-rule="evenodd"/></g><g clip-path="url(#f5c6768e6e)"><path fill="#014fa7" d="M 251.144531 2.824219 L 362.34375 114.035156 L 263.132812 114.035156 C 256.542969 114.035156 251.144531 108.632812 251.144531 102.042969 Z M 251.144531 2.824219 " fill-opacity="1" fill-rule="evenodd"/></g><g clip-path="url(#1996876545)"><path fill="#014fa7" d="M 25.433594 161.210938 L 281.535156 161.210938 C 287.234375 161.210938 291.886719 165.863281 291.886719 171.5625 L 291.886719 265.554688 C 291.886719 271.25 287.234375 275.929688 281.535156 275.929688 L 25.433594 275.929688 C 19.734375 275.929688 15.082031 271.25 15.082031 265.554688 L 15.082031 171.5625 C 15.082031 165.867188 19.734375 161.210938 25.433594 161.210938 Z M 25.433594 161.210938 " fill-opacity="1" fill-rule="evenodd"/></g><path fill="#ffffff" d="M 76.28125 205.726562 L 76.28125 231.410156 C 76.28125 238.753906 82.253906 244.730469 89.597656 244.730469 C 96.9375 244.730469 102.910156 238.753906 102.910156 231.410156 C 102.910156 228.09375 105.597656 225.402344 108.914062 225.402344 C 112.230469 225.402344 114.917969 228.09375 114.917969 231.410156 C 114.917969 245.378906 103.558594 256.742188 89.59375 256.742188 C 75.632812 256.742188 64.273438 245.375 64.273438 231.410156 L 64.273438 205.726562 C 64.273438 191.757812 75.632812 180.398438 89.59375 180.398438 C 103.558594 180.398438 114.917969 191.761719 114.917969 205.726562 C 114.917969 209.046875 112.230469 211.734375 108.914062 211.734375 C 105.597656 211.734375 102.910156 209.046875 102.910156 205.726562 C 102.910156 198.382812 96.9375 192.410156 89.597656 192.410156 C 82.253906 192.410156 76.28125 198.382812 76.28125 205.726562 Z M 151.125 192.410156 L 160.691406 192.410156 C 164.550781 192.410156 167.691406 195.550781 167.691406 199.414062 C 167.691406 202.730469 170.378906 205.421875 173.695312 205.421875 C 177.011719 205.421875 179.699219 202.730469 179.699219 199.414062 C 179.699219 188.929688 171.171875 180.398438 160.691406 180.398438 L 151.125 180.398438 C 138.957031 180.398438 129.054688 190.300781 129.054688 202.472656 C 129.054688 213.25 134.582031 218.503906 139.21875 221.015625 C 145.105469 224.207031 152.53125 224.574219 157.609375 224.574219 C 163.167969 224.574219 167.695312 229.089844 167.695312 234.640625 C 167.695312 240.203125 163.167969 244.730469 157.609375 244.730469 L 148.066406 244.730469 C 144.203125 244.730469 141.0625 241.585938 141.0625 237.722656 C 141.0625 234.40625 138.375 231.714844 135.058594 231.714844 C 131.742188 231.714844 129.054688 234.40625 129.054688 237.722656 C 129.054688 248.207031 137.582031 256.742188 148.066406 256.742188 L 157.609375 256.742188 C 169.789062 256.742188 179.703125 246.828125 179.703125 234.640625 C 179.703125 222.464844 169.789062 212.5625 157.609375 212.5625 C 142.308594 212.5625 141.0625 207.992188 141.0625 202.472656 C 141.0625 196.925781 145.578125 192.410156 151.125 192.410156 Z M 220.625 212.5625 C 205.304688 212.5625 204.058594 207.992188 204.058594 202.472656 C 204.058594 196.925781 208.582031 192.410156 214.140625 192.410156 L 223.6875 192.410156 C 227.546875 192.410156 230.6875 195.550781 230.6875 199.414062 C 230.6875 202.730469 233.378906 205.421875 236.695312 205.421875 C 240.011719 205.421875 242.699219 202.730469 242.699219 199.414062 C 242.699219 188.929688 234.167969 180.398438 223.6875 180.398438 L 214.140625 180.398438 C 201.960938 180.398438 192.050781 190.300781 192.050781 202.472656 C 192.050781 213.25 197.578125 218.507812 202.21875 221.019531 C 208.105469 224.207031 215.542969 224.574219 220.625 224.574219 C 226.175781 224.574219 230.6875 229.089844 230.6875 234.640625 C 230.6875 240.203125 226.175781 244.730469 220.625 244.730469 L 211.0625 244.730469 C 207.199219 244.730469 204.058594 241.585938 204.058594 237.722656 C 204.058594 234.40625 201.367188 231.714844 198.050781 231.714844 C 194.734375 231.714844 192.046875 234.40625 192.046875 237.722656 C 192.046875 248.207031 200.578125 256.742188 211.058594 256.742188 L 220.625 256.742188 C 232.796875 256.742188 242.695312 246.828125 242.695312 234.640625 C 242.695312 222.46875 232.796875 212.5625 220.625 212.5625 Z M 220.625 212.5625 " fill-opacity="1" fill-rule="nonzero"/></svg>